<?xml version="1.0" ?><svg enable-background="new 0 0 32 32" version="1.1" viewBox="0 0 32 32" xml:space="preserve" xmlns="http://www.w3.org/2000/svg" xmlns:xlink="http://www.w3.org/1999/xlink"><g id="s3"><g><path d="M16,31.5C7.453,31.5,0.5,24.547,0.5,16S7.453,0.5,16,0.5S31.5,7.453,31.5,16S24.547,31.5,16,31.5z" fill="#FFFFFF"/><g><path d="M16,1c8.271,0,15,6.729,15,15s-6.729,15-15,15S1,24.271,1,16S7.729,1,16,1 M16,0C7.163,0,0,7.163,0,16     s7.163,16,16,16s16-7.163,16-16S24.837,0,16,0L16,0z" fill="#00BDFF"/></g></g><path d="M23.605,14.516c0.099,0.529,0.153,1.084,0.153,1.662c0,4.522-3.028,7.739-7.6,7.739   c-4.374,0-7.917-3.543-7.917-7.917s3.543-7.917,7.917-7.917c2.138,0,3.924,0.787,5.294,2.063l-2.232,2.232v-0.005   c-0.831-0.792-1.885-1.197-3.062-1.197c-2.612,0-4.735,2.207-4.735,4.819c0,2.612,2.123,4.824,4.735,4.824   c2.37,0,3.983-1.356,4.315-3.216h-4.315v-3.088L23.605,14.516L23.605,14.516z" fill="#00BDFF"/></g></svg>